# xmcd
#
# Track frame offsets: 
#        150
#        18601
#        37093
#        61996
#
# Disc length: 2131 seconds
#
# Revision: 1
# Processed by: cddbd v1.5.2PL0 Copyright (c) Steve Scherf et al.
# Submitted via: ExactAudioCopy v1.0b4
#
DISCID=31085104
DTITLE=Eric Clapton - Give Me Strength: The '74'75 Recordings [CD5]
DTITLE=The Freddie King Criteria Studios Sessions
DYEAR=1975
DGENRE=Classic Rock
TTITLE0=Sugar Sweet
TTITLE1=TV Mama
TTITLE2=Boogie Funk
TTITLE3=Gambling Woman Blues
EXTD=
EXTT0=
EXTT1=
EXTT2=
EXTT3=
PLAYORDER=
